<svg width="33" height="34" viewBox="0 0 33 34" fill="none" xmlns="http://www.w3.org/2000/svg">
<path d="M19.8296 21.6999L20.2976 19.9319H16.1246L15.8516 18.0859L22.0396 12.5349H24.7046L23.2356 18.0469H24.3926L23.8726 19.9319H22.7286L22.2476 21.6999H19.8296ZM18.6596 18.0599H20.8046L21.4936 15.4729L18.6596 18.0599Z" fill="url(#paint0_linear_14_13197)"/>
<path d="M7.37109 21.7L7.90409 19.75L12.5321 16.734C13.2341 16.2834 13.5851 15.8327 13.5851 15.382C13.5851 15.148 13.5071 14.966 13.3511 14.836C13.2038 14.706 12.9871 14.641 12.7011 14.641C12.0944 14.641 11.4054 15.018 10.6341 15.772L9.16509 14.225C10.2398 13.0464 11.4964 12.457 12.9351 12.457C13.9144 12.457 14.6901 12.6997 15.2621 13.185C15.8428 13.6617 16.1331 14.2857 16.1331 15.057C16.1331 15.629 15.9554 16.1577 15.6001 16.643C15.2448 17.1284 14.6251 17.657 13.7411 18.229L11.5181 19.646H15.1451L14.5861 21.7H7.37109Z" fill="url(#paint1_linear_14_13197)"/>
<path d="M33 17C33 20.8174 31.6764 24.5166 29.2547 27.4675C26.833 30.4184 23.463 32.4382 19.719 33.183C15.975 33.9277 12.0886 33.3512 8.72195 31.5517C5.35534 29.7522 2.71683 26.8411 1.25599 23.3143C-0.204853 19.7875 -0.397637 15.8633 0.710484 12.2103C1.81861 8.55732 4.15907 5.40157 7.33309 3.28075C10.5071 1.15994 14.3183 0.205285 18.1173 0.579452C21.9163 0.953618 25.468 2.63345 28.1673 5.33274L26.258 7.24204C24.0004 4.98448 21.0299 3.57954 17.8526 3.26661C14.6753 2.95367 11.4878 3.7521 8.83322 5.52585C6.17861 7.2996 4.22115 9.93893 3.29437 12.9941C2.36759 16.0493 2.52883 19.3313 3.75061 22.281C4.97239 25.2306 7.17912 27.6654 9.9948 29.1704C12.8105 30.6754 16.0609 31.1575 19.1922 30.5347C22.3235 29.9118 25.142 28.2225 27.1674 25.7545C29.1928 23.2866 30.2998 20.1927 30.2998 17H33Z" fill="url(#paint2_linear_14_13197)"/>
<path d="M29.6916 8.5911L25.6763 7.51521L28.6157 4.57582L29.6916 8.5911Z" fill="url(#paint3_linear_14_13197)"/>
<defs>
<linearGradient id="paint0_linear_14_13197" x1="5.6756" y1="12.2555" x2="27.4028" y2="25.8853" gradientUnits="userSpaceOnUse">
<stop stop-color="#BBBBBB"/>
<stop offset="1" stop-color="#4D38C4"/>
</linearGradient>
<linearGradient id="paint1_linear_14_13197" x1="5.67509" y1="12.2556" x2="27.4023" y2="25.8854" gradientUnits="userSpaceOnUse">
<stop stop-color="#BBBBBB"/>
<stop offset="1" stop-color="#4D38C4"/>
</linearGradient>
<linearGradient id="paint2_linear_14_13197" x1="-4.125" y1="4.16667" x2="42.2672" y2="28.1335" gradientUnits="userSpaceOnUse">
<stop stop-color="#BBBBBB"/>
<stop offset="1" stop-color="#4D38C4"/>
</linearGradient>
<linearGradient id="paint3_linear_14_13197" x1="31.4358" y1="6.09266" x2="23.556" y2="8.95841" gradientUnits="userSpaceOnUse">
<stop stop-color="#4D4D4D"/>
<stop offset="1" stop-color="#B0A3F3"/>
</linearGradient>
</defs>
</svg>
