<svg width="32" height="33" viewBox="0 0 32 33" fill="none" xmlns="http://www.w3.org/2000/svg">
<path d="M16 0.67749C7.168 0.67749 0 7.9033 0 16.8065C0 25.7097 7.168 32.9356 16 32.9356C24.832 32.9356 32 25.7097 32 16.8065C32 7.9033 24.832 0.67749 16 0.67749ZM16 29.7097C8.944 29.7097 3.2 23.9194 3.2 16.8065C3.2 9.69362 8.944 3.9033 16 3.9033C23.056 3.9033 28.8 9.69362 28.8 16.8065C28.8 23.9194 23.056 29.7097 16 29.7097ZM22.672 21.2581L20.912 19.4839C22.048 17.3388 21.76 14.6291 19.968 12.8227C19.4486 12.2947 18.8304 11.8761 18.1493 11.5909C17.4681 11.3057 16.7376 11.1597 16 11.1614C15.952 11.1614 15.904 11.1775 15.856 11.1775L17.6 12.9356L15.904 14.6452L11.376 10.0807L15.904 5.5162L17.6 7.22588L16.064 8.77426C18.096 8.79039 20.112 9.54846 21.664 11.0968C24.384 13.8549 24.72 18.1291 22.672 21.2581ZM20.624 23.5323L16.096 28.0968L14.4 26.3872L15.92 24.8549C13.8291 24.8385 11.8287 23.9925 10.352 22.5001C9.04966 21.1859 8.23669 19.4591 8.05016 17.6111C7.86362 15.763 8.31493 13.9066 9.328 12.3549L11.088 14.1291C9.952 16.2743 10.24 18.9839 12.032 20.7904C13.152 21.9194 14.64 22.4678 16.128 22.4194L14.4 20.6775L16.096 18.9678L20.624 23.5323Z" fill="#EBEBEB"/>
</svg>
