<svg width="34" height="34" viewBox="0 0 34 34" fill="none" xmlns="http://www.w3.org/2000/svg">
<rect x="0.5" y="0.5" width="33" height="33" rx="16.5" fill="#F5F5F5"/>
<rect x="0.5" y="0.5" width="33" height="33" rx="16.5" stroke="#F0F0F0"/>
<path d="M28 17C28 19.1756 27.3549 21.3023 26.1462 23.1113C24.9375 24.9202 23.2195 26.3301 21.2095 27.1627C19.1995 27.9952 16.9878 28.2131 14.854 27.7886C12.7202 27.3642 10.7602 26.3166 9.22183 24.7782C7.68345 23.2398 6.6358 21.2798 6.21136 19.146C5.78692 17.0122 6.00476 14.8005 6.83733 12.7905C7.66989 10.7805 9.07979 9.06253 10.8887 7.85383C12.6977 6.64514 14.8244 6 17 6V17H28Z" fill="#FF5C00"/>
</svg>
