<svg width="31" height="31" viewBox="0 0 31 31" fill="none" xmlns="http://www.w3.org/2000/svg">
<g clip-path="url(#clip0_14_13168)">
<path fill-rule="evenodd" clip-rule="evenodd" d="M15.5 0C20.5987 0 24.175 0.191566 26.4287 0.374687C28.6937 0.55871 30.4413 2.3063 30.6253 4.57127C30.8084 6.82503 31 10.4013 31 15.5C31 20.5988 30.8084 24.175 30.6253 26.4287C30.4413 28.6937 28.6937 30.4413 26.4287 30.6253C24.175 30.8084 20.5987 31 15.5 31C10.4012 31 6.82503 30.8084 4.57125 30.6253C2.30629 30.4413 0.558703 28.6937 0.37468 26.4287C0.191566 24.175 0 20.5987 0 15.5C0 10.4013 0.191566 6.82503 0.374687 4.57125C0.55871 2.30629 2.3063 0.558703 4.57127 0.374673C6.82503 0.191559 10.4013 0 15.5 0ZM16.5003 8.29002C16.5431 7.82226 16.6299 7.09356 16.8053 6.05919C16.931 5.31739 17.7928 4.9797 18.3893 5.43825C20.9578 7.41272 22.5893 9.09774 24.1668 11.3714C24.3571 11.6457 24.4556 11.9731 24.4556 12.307C24.4556 12.9095 23.9803 13.4051 23.3779 13.4171C21.801 13.4486 20.0178 13.428 18.2276 13.4074C17.3116 13.3968 16.3935 13.3861 15.5005 13.3825C12.5747 13.3705 9.97676 13.3752 8.49173 13.38C7.66168 13.3828 6.86092 12.9962 6.66293 12.1902C6.59391 11.9094 6.54913 11.6123 6.54479 11.3275C6.53976 10.9954 6.58495 10.6709 6.66038 10.375C6.85637 9.60573 7.63675 9.23538 8.43014 9.21017L15.7913 8.9767C16.163 8.96492 16.4663 8.66044 16.5003 8.29002ZM14.1947 24.9408C14.3701 23.9064 14.4568 23.1777 14.4997 22.71C14.5337 22.3396 14.8369 22.0351 15.2087 22.0233L22.5698 21.7898C23.3633 21.7646 24.1436 21.3943 24.3396 20.625C24.415 20.3291 24.4602 20.0046 24.4551 19.6725C24.4509 19.3877 24.4061 19.0906 24.3371 18.8098C24.1391 18.0038 23.3382 17.6172 22.5083 17.62C21.0232 17.6248 18.4253 17.6295 15.4995 17.6175C14.6064 17.6139 13.6884 17.6032 12.7723 17.5926C10.9821 17.572 9.19901 17.5514 7.62214 17.5829C7.01971 17.5949 6.54444 18.0905 6.54444 18.693C6.54444 19.0269 6.64289 19.3543 6.83316 19.6286C8.41064 21.9023 10.0422 23.5873 12.6107 25.5618C13.2072 26.0203 14.0689 25.6826 14.1947 24.9408Z" fill="#374054"/>
</g>
<defs>
<clipPath id="clip0_14_13168">
<rect width="31" height="31" rx="15.5" fill="white"/>
</clipPath>
</defs>
</svg>
