<svg width="42" height="42" viewBox="0 0 42 42" fill="none" xmlns="http://www.w3.org/2000/svg">
<path d="M39.4109 21.6314C39.4109 20.1401 39.2875 19.0519 39.0202 17.9233H21.6436V24.6543H31.8433C31.6377 26.3271 30.5272 28.8462 28.0595 30.5389L28.0249 30.7643L33.5191 34.9354L33.8997 34.9726C37.3956 31.8086 39.4109 27.1533 39.4109 21.6314Z" fill="#4285F4"/>
<path d="M21.6429 39.3664C26.6399 39.3664 30.8349 37.7541 33.8991 34.9731L28.0588 30.5393C26.496 31.6074 24.3984 32.3531 21.6429 32.3531C16.7487 32.3531 12.5948 29.1891 11.114 24.8159L10.897 24.834L5.18409 29.1669L5.10938 29.3704C8.15282 35.2954 14.4043 39.3664 21.6429 39.3664Z" fill="#34A853"/>
<path d="M11.1145 24.8158C10.7238 23.6873 10.4977 22.478 10.4977 21.2286C10.4977 19.979 10.7238 18.7699 11.094 17.6414L11.0836 17.401L5.29911 12.9985L5.10985 13.0868C3.85549 15.5454 3.13574 18.3064 3.13574 21.2286C3.13574 24.1507 3.85549 26.9116 5.10985 29.3703L11.1145 24.8158Z" fill="#FBBC05"/>
<path d="M21.643 10.1045C25.1183 10.1045 27.4626 11.5756 28.7993 12.805L34.0226 7.80707C30.8147 4.88492 26.64 3.09131 21.643 3.09131C14.4044 3.09131 8.15284 7.16215 5.10938 13.087L11.0935 17.6416C12.5948 13.2685 16.7488 10.1045 21.643 10.1045Z" fill="#EB4335"/>
</svg>
