<svg width="17" height="18" viewBox="0 0 17 18" fill="none" xmlns="http://www.w3.org/2000/svg">
<g clip-path="url(#clip0_27_382)">
<path d="M8.37061 6.30846L10.8041 8.742L10.8157 8.61453C10.8157 7.33595 9.77666 6.29688 8.49808 6.29688L8.37061 6.30846Z" fill="#AFB8CC"/>
<path d="M8.49801 4.75168C10.6302 4.75168 12.3608 6.48221 12.3608 8.61445C12.3608 9.11275 12.2604 9.58787 12.0865 10.0243L14.3462 12.2841C15.5128 11.3106 16.4321 10.0514 17 8.61445C15.6596 5.22296 12.3647 2.82031 8.49804 2.82031C7.41646 2.82031 6.38126 3.01344 5.41943 3.36109L7.08815 5.02592C7.52459 4.85597 7.99971 4.75168 8.49801 4.75168Z" fill="#AFB8CC"/>
<path d="M0.77254 2.64614L2.53396 4.40755L2.88548 4.75908C1.61077 5.75567 0.60259 7.08061 0 8.6141C1.33653 12.0056 4.63531 14.4082 8.49808 14.4082C9.69555 14.4082 10.8389 14.1765 11.8857 13.7554L12.2141 14.0838L14.4661 16.3396L15.4511 15.3585L1.75754 1.66113L0.77254 2.64614ZM5.04477 6.9145L6.23837 8.10809C6.2036 8.2742 6.18043 8.44027 6.18043 8.6141C6.18043 9.89268 7.2195 10.9318 8.49808 10.9318C8.6719 10.9318 8.83801 10.9086 9.00025 10.8738L10.1938 12.0674C9.68008 12.3223 9.10842 12.4769 8.49808 12.4769C6.36584 12.4769 4.63531 10.7463 4.63531 8.6141C4.63531 8.00379 4.78983 7.43209 5.04477 6.9145Z" fill="#AFB8CC"/>
</g>
<defs>
<clipPath id="clip0_27_382">
<rect width="17" height="17" fill="white" transform="translate(0 0.5)"/>
</clipPath>
</defs>
</svg>
