<svg width="188" height="42" viewBox="0 0 188 42" fill="none" xmlns="http://www.w3.org/2000/svg">
<path fill-rule="evenodd" clip-rule="evenodd" d="M6.56294 28.6366C6.14547 28.6366 5.74154 28.6946 5.35875 28.8029C4.31977 27.0487 3.62861 25.0949 3.34043 23.0479C2.84706 19.5433 3.5644 15.9752 5.37387 12.9336C7.18334 9.89196 9.97659 7.55886 13.2918 6.32C16.6071 5.08114 20.2459 5.0107 23.6066 6.12032L24.6063 3.09247C20.5562 1.75524 16.171 1.84013 12.1757 3.33311C8.18038 4.8261 4.81415 7.63778 2.6335 11.3034C0.45286 14.9689 -0.41163 19.2689 0.182947 23.4924C0.547277 26.0804 1.44607 28.5447 2.80257 30.7372C2.38758 31.4101 2.14815 32.2028 2.14815 33.0514C2.14815 35.4896 4.12472 37.4662 6.56294 37.4662C9.00116 37.4662 10.9777 35.4896 10.9777 33.0514C10.9777 30.6132 9.00116 28.6366 6.56294 28.6366ZM32.1075 12.9592C31.7249 13.0673 31.3212 13.1252 30.9039 13.1252C28.4657 13.1252 26.4891 11.1487 26.4891 8.71044C26.4891 6.27222 28.4657 4.29566 30.9039 4.29566C33.3421 4.29566 35.3187 6.27222 35.3187 8.71044C35.3187 9.55928 35.0791 10.3522 34.6639 11.0252C36.0203 13.2176 36.9189 15.6817 37.2832 18.2695C37.8778 22.493 37.0133 26.793 34.8327 30.4585C32.652 34.1241 29.2858 36.9358 25.2905 38.4288C21.2952 39.9217 16.91 40.0066 12.8599 38.6694L13.8596 35.6416C17.2203 36.7512 20.8591 36.6807 24.1743 35.4419C27.4896 34.203 30.2828 31.8699 32.0923 28.8283C33.9018 25.7866 34.6191 22.2186 34.1258 18.714C33.8376 16.667 33.1465 14.7132 32.1075 12.9592ZM18.7332 31.5003C24.5981 31.5003 29.3525 26.7458 29.3525 20.8809C29.3525 15.016 24.5981 10.2616 18.7332 10.2616C12.8683 10.2616 8.11385 15.016 8.11385 20.8809C8.11385 26.7458 12.8683 31.5003 18.7332 31.5003Z" fill="url(#paint0_linear_104_3095)"/>
<path d="M52.2059 24.6052H57.303L54.7676 19.4817L52.2059 24.6052ZM56.405 14.5166L63.7998 29.3062C64.0287 29.764 64.0639 30.2393 63.9055 30.7323C63.747 31.2077 63.4389 31.5598 62.9811 31.7887C62.717 31.9296 62.4441 32 62.1624 32C61.3877 32 60.8331 31.6567 60.4986 30.97L59.1517 28.3026H50.3572L49.0102 30.97C48.7814 31.4278 48.4292 31.7359 47.9538 31.8944C47.4609 32.0528 46.9855 32.0176 46.5277 31.7887C46.0699 31.5598 45.7618 31.2077 45.6034 30.7323C45.4449 30.2393 45.4801 29.764 45.709 29.3062L53.1038 14.5166C53.4207 13.9003 53.9753 13.5922 54.7676 13.5922C55.5423 13.5922 56.0881 13.9003 56.405 14.5166ZM67.377 32C66.5847 32 66.03 31.6391 65.7131 30.9172C65.3786 30.1953 65.4666 29.5351 65.9772 28.9364L76.0394 17.2104H67.377C66.8664 17.2104 66.435 17.0343 66.0829 16.6822C65.7131 16.3125 65.5283 15.8723 65.5283 15.3617C65.5283 14.8511 65.7131 14.4197 66.0829 14.0676C66.435 13.6979 66.8664 13.513 67.377 13.513H80.0538C80.8461 13.513 81.4095 13.8739 81.744 14.5958C82.0785 15.3001 81.9817 15.9603 81.4535 16.5766L71.3913 28.3026H80.0538C80.5643 28.3026 81.0045 28.4787 81.3743 28.8308C81.7264 29.2005 81.9025 29.6407 81.9025 30.1513C81.9025 30.6619 81.7264 31.0933 81.3743 31.4454C81.0045 31.8151 80.5643 32 80.0538 32H67.377ZM90.1444 24.6052H95.2416L92.7062 19.4817L90.1444 24.6052ZM94.3436 14.5166L101.738 29.3062C101.967 29.764 102.003 30.2393 101.844 30.7323C101.686 31.2077 101.377 31.5598 100.92 31.7887C100.656 31.9296 100.383 32 100.101 32C99.3263 32 98.7717 31.6567 98.4372 30.97L97.0903 28.3026H88.2957L86.9488 30.97C86.7199 31.4278 86.3678 31.7359 85.8924 31.8944C85.3994 32.0528 84.9241 32.0176 84.4663 31.7887C84.0085 31.5598 83.7004 31.2077 83.5419 30.7323C83.3835 30.2393 83.4187 29.764 83.6476 29.3062L91.0424 14.5166C91.3593 13.9003 91.9139 13.5922 92.7062 13.5922C93.4809 13.5922 94.0267 13.9003 94.3436 14.5166ZM105.316 32C104.523 32 103.969 31.6391 103.652 30.9172C103.317 30.1953 103.405 29.5351 103.916 28.9364L113.978 17.2104H105.316C104.805 17.2104 104.374 17.0343 104.021 16.6822C103.652 16.3125 103.467 15.8723 103.467 15.3617C103.467 14.8511 103.652 14.4197 104.021 14.0676C104.374 13.6979 104.805 13.513 105.316 13.513H117.992C118.785 13.513 119.348 13.8739 119.683 14.5958C120.017 15.3001 119.92 15.9603 119.392 16.5766L109.33 28.3026H117.992C118.503 28.3026 118.943 28.4787 119.313 28.8308C119.665 29.2005 119.841 29.6407 119.841 30.1513C119.841 30.6619 119.665 31.0933 119.313 31.4454C118.943 31.8151 118.503 32 117.992 32H105.316ZM137.353 32H124.676C124.166 32 123.725 31.8239 123.356 31.4718C123.003 31.1021 122.827 30.6619 122.827 30.1513V15.3617C122.827 14.8511 123.003 14.4109 123.356 14.0412C123.725 13.6891 124.166 13.513 124.676 13.513H137.353C137.864 13.513 138.304 13.6891 138.673 14.0412C139.026 14.4109 139.202 14.8511 139.202 15.3617C139.202 15.8723 139.026 16.3125 138.673 16.6822C138.304 17.0343 137.864 17.2104 137.353 17.2104H126.525V20.9078H136.297C136.807 20.9078 137.238 21.0839 137.591 21.436C137.96 21.8057 138.145 22.2459 138.145 22.7565C138.145 23.2671 137.96 23.7073 137.591 24.077C137.238 24.4291 136.807 24.6052 136.297 24.6052H126.525V28.3026H137.353C137.864 28.3026 138.304 28.4787 138.673 28.8308C139.026 29.2005 139.202 29.6407 139.202 30.1513C139.202 30.6619 139.026 31.1021 138.673 31.4718C138.304 31.8239 137.864 32 137.353 32ZM154.961 13.513C155.472 13.4778 155.921 13.6274 156.308 13.962C156.695 14.2965 156.907 14.7191 156.942 15.2296C156.977 15.7402 156.827 16.1892 156.493 16.5766L151.185 22.7565L156.493 28.9364C156.827 29.3238 156.977 29.7728 156.942 30.2833C156.907 30.7939 156.695 31.2165 156.308 31.551C155.956 31.8503 155.551 32 155.093 32C154.53 32 154.063 31.7887 153.694 31.3662L148.755 25.6088L143.816 31.3662C143.446 31.7887 142.98 32 142.416 32C141.959 32 141.554 31.8503 141.202 31.551C140.814 31.2165 140.603 30.7939 140.568 30.2833C140.533 29.7728 140.682 29.3238 141.017 28.9364L146.325 22.7565L141.017 16.5766C140.682 16.1892 140.533 15.7402 140.568 15.2296C140.603 14.7191 140.814 14.2965 141.202 13.962C141.607 13.6274 142.055 13.4778 142.548 13.513C143.059 13.5482 143.482 13.7595 143.816 14.1468L148.755 19.9042L153.694 14.1468C154.028 13.7595 154.451 13.5482 154.961 13.513Z" fill="#262626"/>
<defs>
<linearGradient id="paint0_linear_104_3095" x1="5.72729" y1="5.13091" x2="49.0399" y2="53.5742" gradientUnits="userSpaceOnUse">
<stop stop-color="#482BE7"/>
<stop offset="1" stop-color="#281881"/>
</linearGradient>
</defs>
</svg>
