<svg width="42" height="42" viewBox="0 0 42 42" fill="none" xmlns="http://www.w3.org/2000/svg">
<path d="M39.0515 21.2289C39.0515 31.2408 30.9349 39.3664 20.9139 39.3664C10.8929 39.3664 2.77637 31.2408 2.77637 21.2289C2.77637 11.2079 10.8929 3.09131 20.9139 3.09131C30.9349 3.09131 39.0515 11.2079 39.0515 21.2289Z" fill="#374054"/>
<path d="M29.416 16.6391C29.317 16.6968 26.9609 17.9153 26.9609 20.617C27.0719 23.6981 29.9342 24.7786 29.9833 24.7786C29.9342 24.8364 29.5511 26.2506 28.4165 27.733C27.5161 29.01 26.5167 30.2975 24.999 30.2975C23.5554 30.2975 23.0372 29.4464 21.3715 29.4464C19.5827 29.4464 19.0766 30.2975 17.707 30.2975C16.1893 30.2975 15.1159 28.941 14.1664 27.676C12.9328 26.0204 11.8843 23.4222 11.8473 20.9275C11.8223 19.6055 12.0943 18.306 12.7847 17.2022C13.7592 15.6613 15.4989 14.6153 17.3988 14.5808C18.8545 14.5351 20.15 15.5121 21.0384 15.5121C21.8897 15.5121 23.4814 14.5808 25.2823 14.5808C26.0596 14.5815 28.1325 14.7997 29.416 16.6391ZM20.9153 14.3168C20.6562 13.1096 21.3715 11.9024 22.0378 11.1323C22.8892 10.201 24.2338 9.56885 25.3933 9.56885C25.4674 10.7761 24.9982 11.9601 24.1598 12.8224C23.4074 13.7537 22.1118 14.4548 20.9153 14.3168Z" fill="white"/>
</svg>
