<svg width="15" height="15" viewBox="0 0 15 15" fill="none" xmlns="http://www.w3.org/2000/svg">
<path d="M7.50168 0C7.24366 0 7.00519 0.0123083 6.79782 0.0295128C6.23936 0.0758385 5.84905 0.559097 5.82779 1.11333L5.69678 4.52817C5.33454 4.53867 5.02652 4.55198 4.76547 4.56653C4.37897 4.58808 4.08072 4.79235 3.95425 5.09417C3.82755 5.39668 3.88952 5.75865 4.14514 6.05922C4.40703 6.3672 4.74447 6.74442 5.17572 7.19638C5.93977 7.99718 6.5115 8.4491 6.89116 8.70068C7.26998 8.95166 7.73321 8.95162 8.11199 8.70061C8.49162 8.44907 9.06332 7.99711 9.82743 7.19641C10.2589 6.74428 10.5965 6.36696 10.8584 6.05894C11.1139 5.75841 11.1759 5.3965 11.0492 5.09407C10.9228 4.79232 10.6246 4.58812 10.2381 4.56656C9.97697 4.55198 9.66878 4.53867 9.30634 4.52817L9.17526 1.11321C9.15396 0.559045 8.76372 0.0758247 8.20533 0.0294989C7.99803 0.0123013 7.75963 0 7.50168 0Z" fill="white"/>
<path d="M11.8825 8.88942C11.2753 8.86816 10.7542 9.29961 10.6806 9.87969L10.5455 10.9451C10.5352 11.026 10.464 11.0868 10.3795 11.0868H4.62049C4.53601 11.0868 4.46478 11.026 4.45451 10.9451L4.3194 9.87969C4.24582 9.29961 3.7247 8.86816 3.11749 8.88942C2.28317 8.91863 1.5757 8.95012 1.09922 8.973C0.466133 9.00343 -0.0292685 9.51765 0.00134607 10.1366C0.0460372 11.0402 0.160707 12.7868 0.427509 13.809C0.607722 14.4995 1.24231 14.8305 1.84592 14.8728C2.66498 14.9302 4.31338 14.9998 7.49999 14.9998C10.6866 14.9998 12.335 14.9302 13.1541 14.8728C13.7577 14.8305 14.3922 14.4995 14.5725 13.809C14.8393 12.7868 14.9539 11.0402 14.9987 10.1366C15.0293 9.51765 14.5338 9.00343 13.9008 8.973C13.4243 8.95012 12.7168 8.91863 11.8825 8.88942Z" fill="white"/>
</svg>
