<svg width="26" height="27" viewBox="0 0 26 27" fill="none" xmlns="http://www.w3.org/2000/svg">
<path d="M13.1667 11.2051C12.5036 11.2051 11.8677 11.4718 11.3989 11.9465C10.9301 12.4212 10.6667 13.065 10.6667 13.7363C10.6667 14.4077 10.9301 15.0515 11.3989 15.5262C11.8677 16.0009 12.5036 16.2676 13.1667 16.2676C13.8297 16.2676 14.4656 16.0009 14.9344 15.5262C15.4033 15.0515 15.6667 14.4077 15.6667 13.7363C15.6667 13.065 15.4033 12.4212 14.9344 11.9465C14.4656 11.4718 13.8297 11.2051 13.1667 11.2051ZM13.1667 17.9551C12.0616 17.9551 11.0018 17.5106 10.2204 16.7194C9.43899 15.9283 9 14.8552 9 13.7363C9 12.6174 9.43899 11.5444 10.2204 10.7532C11.0018 9.96205 12.0616 9.51758 13.1667 9.51758C14.2717 9.51758 15.3315 9.96205 16.1129 10.7532C16.8943 11.5444 17.3333 12.6174 17.3333 13.7363C17.3333 14.8552 16.8943 15.9283 16.1129 16.7194C15.3315 17.5106 14.2717 17.9551 13.1667 17.9551ZM13.1667 7.4082C9 7.4082 5.44167 10.0323 4 13.7363C5.44167 17.4404 9 20.0645 13.1667 20.0645C17.3333 20.0645 20.8917 17.4404 22.3333 13.7363C20.8917 10.0323 17.3333 7.4082 13.1667 7.4082Z" fill="#374054"/>
</svg>
