<svg width="24" height="24" viewBox="0 0 24 24" fill="none" xmlns="http://www.w3.org/2000/svg">
<g clip-path="url(#clip0_20_156)">
<path d="M22.0025 12.0615C22.0025 6.50402 17.525 1.99902 12.0025 1.99902C6.4775 2.00027 2 6.50402 2 12.0628C2 17.084 5.6575 21.2465 10.4375 22.0015V14.9703H7.9V12.0628H10.44V9.84402C10.44 7.32277 11.9338 5.93027 14.2175 5.93027C15.3125 5.93027 16.4562 6.12652 16.4562 6.12652V8.60152H15.195C13.9537 8.60152 13.5662 9.37777 13.5662 10.174V12.0615H16.3387L15.8962 14.969H13.565V22.0003C18.345 21.2453 22.0025 17.0828 22.0025 12.0615Z" fill="#1E0E62"/>
</g>
<defs>
<clipPath id="clip0_20_156">
<rect width="20" height="20" fill="white" transform="translate(2 2)"/>
</clipPath>
</defs>
</svg>
