<svg width="34" height="34" viewBox="0 0 34 34" fill="none" xmlns="http://www.w3.org/2000/svg">
<rect x="0.5" y="0.5" width="33" height="33" rx="16.5" fill="#F5F5F5"/>
<rect x="0.5" y="0.5" width="33" height="33" rx="16.5" stroke="#F0F0F0"/>
<g clip-path="url(#clip0_14_14801)">
<path d="M6 12.875C5.99981 14.4663 6.55164 16.0084 7.56139 17.2383C8.57113 18.4682 9.97625 19.3097 11.5371 19.6194C11.627 18.6344 11.8798 17.6712 12.2851 16.769C11.0806 16.362 10.3065 15.438 10.125 14.1262H9.4375V13.5405H10.0782V12.9437C10.0773 12.8796 10.0792 12.8177 10.0838 12.7581H9.4375V12.171H10.1401C10.4495 10.455 11.7929 9.4375 13.8114 9.4375C14.2459 9.4375 14.6226 9.48012 14.9375 9.55437V10.5622C14.5697 10.4809 14.1935 10.4431 13.8169 10.4495C12.5532 10.4495 11.7021 11.0902 11.4326 12.171H14.0685V12.7581H11.346C11.3423 12.8223 11.341 12.8897 11.3419 12.9602V13.5405H14.0685V14.1276H11.4037C11.566 14.9554 12.0472 15.5439 12.7856 15.8175C13.5096 14.6184 14.5053 13.6063 15.6923 12.8628C16.8794 12.1193 18.2246 11.6652 19.6194 11.5371C19.2822 9.8672 18.3372 8.38186 16.9675 7.36883C15.5977 6.35579 13.9008 5.88716 12.2053 6.05371C10.5099 6.22026 8.93654 7.01014 7.79013 8.27035C6.64372 9.53055 6.00583 11.1714 6 12.875ZM28 20.4375C28 22.4432 27.2032 24.3667 25.785 25.785C24.3668 27.2032 22.4432 28 20.4375 28C18.4318 28 16.5082 27.2032 15.09 25.785C13.6718 24.3667 12.875 22.4432 12.875 20.4375C12.875 18.4318 13.6718 16.5082 15.09 15.09C16.5082 13.6718 18.4318 12.875 20.4375 12.875C22.4432 12.875 24.3668 13.6718 25.785 15.09C27.2032 16.5082 28 18.4318 28 20.4375ZM17.3438 22.2552C17.4386 23.4034 18.3695 24.2971 20.0442 24.403V25.25H20.7867V24.3975C22.5179 24.2792 23.5312 23.38 23.5312 22.0737C23.5312 20.8844 22.7571 20.2725 21.3725 19.9562L20.7867 19.8187V17.5142C21.5292 17.5967 22.0023 17.9914 22.115 18.5386H23.4185C23.3223 17.4331 22.3474 16.5682 20.7867 16.4734V15.625H20.0442V16.4899C18.5647 16.6315 17.5583 17.4964 17.5583 18.7201C17.5583 19.8022 18.3062 20.4911 19.552 20.773L20.0442 20.8899V23.3374C19.2825 23.2274 18.7793 22.8204 18.6651 22.2552H17.3438ZM20.0387 19.6496C19.3073 19.4846 18.9113 19.1491 18.9113 18.6431C18.9113 18.0794 19.3389 17.6545 20.0442 17.5307V19.6482H20.0374L20.0387 19.6496ZM20.894 21.0851C21.7809 21.2845 22.1906 21.6076 22.1906 22.1796C22.1906 22.8314 21.6819 23.2796 20.7881 23.3621V21.0604L20.894 21.0851Z" fill="#697286"/>
</g>
<defs>
<clipPath id="clip0_14_14801">
<rect width="22" height="22" fill="white" transform="translate(6 6)"/>
</clipPath>
</defs>
</svg>
