<svg width="18" height="18" viewBox="0 0 18 18" fill="none" xmlns="http://www.w3.org/2000/svg">
<g clip-path="url(#clip0_231_367)">
<g clip-path="url(#clip1_231_367)">
<path d="M17.4375 9C17.4375 13.6592 13.6592 17.4375 9 17.4375C4.34081 17.4375 0.5625 13.6592 0.5625 9C0.5625 4.34081 4.34081 0.5625 9 0.5625C13.6592 0.5625 17.4375 4.34081 17.4375 9Z" fill="#F5B700"/>
<path d="M6.04688 13.2188V4.78125H9.50583C10.5225 4.78125 11.292 4.97742 11.8177 5.36977C12.3434 5.76211 12.6053 6.33713 12.6053 7.09355C12.6053 7.50698 12.4999 7.87148 12.2906 8.1862C12.0797 8.50092 11.7865 8.73169 11.4106 8.8785C11.8392 8.98734 12.1767 9.20461 12.4239 9.53452C12.6716 9.86189 12.7969 10.2622 12.7969 10.7385C12.7969 11.5494 12.54 12.1641 12.0257 12.5809C11.5114 12.9977 10.7799 13.2103 9.82898 13.2188H6.04688ZM7.73438 8.15625H9.57502C10.4453 8.14148 10.882 7.80863 10.882 7.12477C10.882 6.74255 10.7715 6.46706 10.5508 6.29916C10.3302 6.13125 9.98212 6.04688 9.50583 6.04688H7.73438V8.15625ZM7.73438 9.42188V11.9531H9.77794C10.1834 11.9531 11.1094 11.7553 11.1094 10.8525C11.1094 9.94964 10.6381 9.43327 9.84375 9.42188H7.73438Z" fill="#FFF8E1"/>
<path d="M7.3125 3.51562H8.57812V5.625H7.3125V3.51562ZM9.42188 3.51562H10.6875V5.625H9.42188V3.51562ZM7.3125 12.375H8.57812V14.4844H7.3125V12.375ZM9.42188 12.375H10.6875V14.4844H9.42188V12.375Z" fill="#FFF8E1"/>
</g>
</g>
<defs>
<clipPath id="clip0_231_367">
<rect width="18" height="18" fill="white"/>
</clipPath>
<clipPath id="clip1_231_367">
<rect width="18" height="18" fill="white"/>
</clipPath>
</defs>
</svg>
