<svg width="30" height="30" viewBox="0 0 30 30" fill="none" xmlns="http://www.w3.org/2000/svg">
<rect x="1" y="1" width="28" height="28" rx="14" fill="#482BE7"/>
<rect x="1" y="1" width="28" height="28" rx="14" stroke="#482BE7" stroke-width="2"/>
<path d="M9.04562 18.5952C8.83005 19.1514 9.41515 19.6634 10.0313 19.4508C11.5109 18.9403 12.9783 18.3194 13.6513 18.0266C13.9292 17.9056 14.1411 17.6926 14.2479 17.4347L15 15.6177L15.7521 17.4347C15.8589 17.6926 16.0708 17.9056 16.3488 18.0266C17.0217 18.3194 18.4891 18.9403 19.9687 19.4508C20.5848 19.6634 21.17 19.1514 20.9544 18.5952C20.23 16.7262 18.519 12.7834 15.8348 9.38913C15.4245 8.87029 14.5755 8.87029 14.1652 9.38913C11.481 12.7834 9.76997 16.7262 9.04562 18.5952Z" fill="white"/>
</svg>
