<svg width="24" height="24" viewBox="0 0 24 24" fill="none" xmlns="http://www.w3.org/2000/svg">
<path d="M3.4058 3.4058C2 4.8117 2 7.07464 2 11.6V12.4C2 16.9254 2 19.1883 3.4058 20.5942C4.8117 22 7.07464 22 11.6 22H12.4C16.9254 22 19.1883 22 20.5942 20.5942C22 19.1883 22 16.9254 22 12.4V11.6C22 7.0746 22 4.81165 20.5942 3.4058C19.1883 2 16.9254 2 12.4 2H11.6C7.0746 2 4.81165 2 3.4058 3.4058ZM5.375 8.08339H7.65835C7.73335 11.9 9.41665 13.5167 10.75 13.85V8.08335H12.9V11.375C14.2167 11.2333 15.6 9.73335 16.0667 8.08335H18.2167C18.0408 8.93907 17.6902 9.7493 17.1869 10.4634C16.6836 11.1774 16.0384 11.78 15.2917 12.2333C16.1255 12.6473 16.8619 13.2335 17.4523 13.9532C18.0427 14.6729 18.4737 15.5097 18.7167 16.4083H16.35C16.1319 15.6278 15.6881 14.929 15.0744 14.3997C14.4606 13.8705 13.7042 13.5343 12.9 13.4333V16.4083H12.6417C8.08335 16.4083 5.48335 13.2833 5.375 8.08335" fill="#1E0E62"/>
</svg>
