<svg width="34" height="34" viewBox="0 0 34 34" fill="none" xmlns="http://www.w3.org/2000/svg">
<rect x="0.5" y="0.5" width="33" height="33" rx="16.5" fill="#F5F5F5"/>
<rect x="0.5" y="0.5" width="33" height="33" rx="16.5" stroke="#F0F0F0"/>
<path fill-rule="evenodd" clip-rule="evenodd" d="M14.8969 8.33813C14.9757 8.24875 15.0778 8.18302 15.1918 8.14829C15.3057 8.11355 15.4271 8.11117 15.5423 8.14142C16.9682 8.51299 19.1591 9.47856 21.0053 11.1976C22.8658 12.932 24.3881 15.4481 24.3881 18.8797C24.3881 20.2387 24.0833 21.9011 23.0278 23.2781C21.9555 24.6796 20.1773 25.6953 17.4182 25.8663H17.4105C13.7333 26.0514 11.1516 24.1408 10.1141 21.509C9.08549 18.9003 9.60106 15.6551 11.9192 13.193C11.9805 13.1277 12.0548 13.0759 12.1373 13.041C12.2198 13.006 12.3087 12.9887 12.3983 12.9902C12.4879 12.9916 12.5762 13.0118 12.6575 13.0494C12.7389 13.087 12.8115 13.1411 12.8706 13.2084L14.4971 15.0547C15.0923 13.9927 15.3816 13.067 15.4253 12.14C15.4703 11.1976 15.2621 10.2024 14.7825 9.00284C14.7383 8.89221 14.7257 8.77146 14.7461 8.65409C14.7666 8.53671 14.8192 8.42732 14.8982 8.33813H14.8969ZM14.8326 18.116C14.8326 17.9894 14.8576 17.864 14.906 17.747C14.9545 17.63 15.0255 17.5237 15.1151 17.4341C15.2046 17.3446 15.3109 17.2736 15.4279 17.2251C15.5449 17.1766 15.6703 17.1517 15.7969 17.1517C15.9236 17.1517 16.0489 17.1766 16.1659 17.2251C16.2829 17.2736 16.3892 17.3446 16.4788 17.4341C16.5683 17.5237 16.6393 17.63 16.6878 17.747C16.7363 17.864 16.7612 17.9894 16.7612 18.116C16.7612 18.3717 16.6596 18.617 16.4788 18.7978C16.2979 18.9787 16.0527 19.0803 15.7969 19.0803C15.5412 19.0803 15.2959 18.9787 15.1151 18.7978C14.9342 18.617 14.8326 18.3717 14.8326 18.116ZM19.9626 18.278C20.0223 18.2182 20.0696 18.1473 20.1019 18.0692C20.1342 17.9912 20.1508 17.9075 20.1507 17.823C20.1506 17.7386 20.134 17.6549 20.1016 17.5769C20.0692 17.4989 20.0218 17.428 19.962 17.3683C19.9022 17.3087 19.8313 17.2613 19.7532 17.2291C19.6752 17.1968 19.5915 17.1802 19.507 17.1803C19.4226 17.1803 19.3389 17.197 19.2609 17.2294C19.1829 17.2618 19.112 17.3092 19.0523 17.369L14.8313 21.59C14.7699 21.6493 14.721 21.7202 14.6873 21.7987C14.6536 21.8771 14.6359 21.9614 14.6351 22.0468C14.6344 22.1322 14.6506 22.2168 14.683 22.2958C14.7153 22.3748 14.763 22.4466 14.8234 22.507C14.8837 22.5673 14.9555 22.615 15.0345 22.6474C15.1135 22.6797 15.1982 22.696 15.2835 22.6952C15.3689 22.6945 15.4532 22.6767 15.5317 22.6431C15.6101 22.6094 15.681 22.5604 15.7403 22.499L19.9626 18.278ZM18.2526 21.7533C18.2526 21.4975 18.3542 21.2523 18.5351 21.0714C18.7159 20.8906 18.9612 20.789 19.2169 20.789C19.4727 20.789 19.7179 20.8906 19.8988 21.0714C20.0796 21.2523 20.1812 21.4975 20.1812 21.7533C20.1812 22.009 20.0796 22.2543 19.8988 22.4351C19.7179 22.616 19.4727 22.7176 19.2169 22.7176C18.9612 22.7176 18.7159 22.616 18.5351 22.4351C18.3542 22.2543 18.2526 22.009 18.2526 21.7533Z" fill="#697286"/>
</svg>
