<svg width="8" height="15" viewBox="0 0 8 15" fill="none" xmlns="http://www.w3.org/2000/svg">
<path d="M7.66071 7.19203C7.75 7.28132 7.79464 7.384 7.79464 7.50007C7.79464 7.61614 7.75 7.71882 7.66071 7.80811L1.41964 14.0492C1.33036 14.1385 1.22768 14.1831 1.11161 14.1831C0.995536 14.1831 0.892857 14.1385 0.803571 14.0492L0.133929 13.3795C0.0446429 13.2902 0 13.1876 0 13.0715C0 12.9554 0.0446429 12.8527 0.133929 12.7635L5.39732 7.50007L0.133929 2.23668C0.0446429 2.14739 0 2.04471 0 1.92864C0 1.81257 0.0446429 1.70989 0.133929 1.62061L0.803571 0.950962C0.892857 0.861677 0.995536 0.817034 1.11161 0.817034C1.22768 0.817034 1.33036 0.861677 1.41964 0.950962L7.66071 7.19203Z" fill="#575757"/>
</svg>
