<svg width="24" height="24" viewBox="0 0 24 24" fill="none" xmlns="http://www.w3.org/2000/svg">
<g clip-path="url(#clip0_20_151)">
<path d="M8.2825 20.75C15.83 20.75 19.9587 14.4963 19.9587 9.08251C19.9604 8.90668 19.9579 8.73084 19.9513 8.55501C20.7548 7.97282 21.4485 7.25245 22 6.42751C21.2489 6.75785 20.4533 6.97602 19.6388 7.07501C20.497 6.56215 21.1398 5.75503 21.4475 4.80376C20.6416 5.28216 19.759 5.61753 18.8387 5.79501C18.2202 5.13629 17.4018 4.69991 16.5101 4.55346C15.6185 4.40701 14.7034 4.55866 13.9067 4.98493C13.1099 5.4112 12.476 6.0883 12.1031 6.91134C11.7301 7.73438 11.639 8.65743 11.8438 9.53751C10.2121 9.45609 8.61581 9.0324 7.15854 8.29397C5.70126 7.55553 4.41559 6.51886 3.385 5.25126C2.86198 6.15519 2.70244 7.22424 2.93876 8.24149C3.17508 9.25874 3.78956 10.148 4.6575 10.7288C4.00676 10.7077 3.37024 10.533 2.8 10.2188V10.275C2.80159 11.2217 3.12977 12.1389 3.72915 12.8718C4.32853 13.6046 5.1624 14.1082 6.09 14.2975C5.73784 14.3946 5.37404 14.4429 5.00875 14.4413C4.75115 14.4439 4.49396 14.4201 4.24125 14.37C4.50299 15.1854 5.01347 15.8983 5.70105 16.4088C6.38862 16.9193 7.21877 17.2016 8.075 17.2163C6.62013 18.3575 4.82406 18.9769 2.975 18.975C2.64912 18.9775 2.32343 18.9587 2 18.9188C3.87678 20.1156 6.05658 20.751 8.2825 20.75Z" fill="#1E0E62"/>
</g>
<defs>
<clipPath id="clip0_20_151">
<rect width="20" height="20" fill="white" transform="translate(2 2)"/>
</clipPath>
</defs>
</svg>
